<mxfile host="app.diagrams.net" modified="2023-05-27T16:23:02.883Z" agent="Mozilla/5.0 (Windows NT 10.0; Win64; x64) AppleWebKit/537.36 (KHTML, like Gecko) Chrome/112.0.0.0 Safari/537.36 OPR/98.0.0.0" etag="iqIhbyzugzO0D612riX7" version="21.3.4" type="device">
  <diagram name="Page-1" id="gXTFsdea2RnOFONwchQM">
    <mxGraphModel dx="1187" dy="684" grid="0" gridSize="10" guides="1" tooltips="1" connect="1" arrows="1" fold="1" page="1" pageScale="1" pageWidth="980" pageHeight="1390" background="#ffffff" math="0" shadow="0">
      <root>
        <mxCell id="0" />
        <mxCell id="1" parent="0" />
        <mxCell id="cXK9eeM2C_JBxDsrHM4t-1" value="" style="rounded=0;whiteSpace=wrap;html=1;fillColor=#f9f7ed;strokeColor=#36393d;" vertex="1" parent="1">
          <mxGeometry x="360" y="280" width="240" height="530" as="geometry" />
        </mxCell>
        <mxCell id="cXK9eeM2C_JBxDsrHM4t-2" value="&lt;font color=&quot;#000000&quot;&gt;&lt;span style=&quot;font-size: 29px;&quot;&gt;&lt;b&gt;E0&lt;/b&gt;&lt;/span&gt;&lt;/font&gt;" style="text;html=1;strokeColor=none;fillColor=none;align=center;verticalAlign=middle;whiteSpace=wrap;rounded=0;" vertex="1" parent="1">
          <mxGeometry x="350" y="290" width="60" height="30" as="geometry" />
        </mxCell>
        <mxCell id="cXK9eeM2C_JBxDsrHM4t-3" value="&lt;font color=&quot;#000000&quot;&gt;&lt;span style=&quot;font-size: 29px;&quot;&gt;&lt;b&gt;E1&lt;/b&gt;&lt;/span&gt;&lt;/font&gt;" style="text;html=1;strokeColor=none;fillColor=none;align=center;verticalAlign=middle;whiteSpace=wrap;rounded=0;" vertex="1" parent="1">
          <mxGeometry x="350" y="320" width="60" height="30" as="geometry" />
        </mxCell>
        <mxCell id="cXK9eeM2C_JBxDsrHM4t-4" value="&lt;font color=&quot;#000000&quot;&gt;&lt;span style=&quot;font-size: 29px;&quot;&gt;&lt;b&gt;E2&lt;/b&gt;&lt;/span&gt;&lt;/font&gt;" style="text;html=1;strokeColor=none;fillColor=none;align=center;verticalAlign=middle;whiteSpace=wrap;rounded=0;" vertex="1" parent="1">
          <mxGeometry x="350" y="350" width="60" height="30" as="geometry" />
        </mxCell>
        <mxCell id="cXK9eeM2C_JBxDsrHM4t-5" value="&lt;font color=&quot;#000000&quot;&gt;&lt;span style=&quot;font-size: 29px;&quot;&gt;&lt;b&gt;E3&lt;/b&gt;&lt;/span&gt;&lt;/font&gt;" style="text;html=1;strokeColor=none;fillColor=none;align=center;verticalAlign=middle;whiteSpace=wrap;rounded=0;" vertex="1" parent="1">
          <mxGeometry x="350" y="380" width="60" height="30" as="geometry" />
        </mxCell>
        <mxCell id="cXK9eeM2C_JBxDsrHM4t-6" value="&lt;font color=&quot;#000000&quot;&gt;&lt;span style=&quot;font-size: 29px;&quot;&gt;&lt;b&gt;E4&lt;br&gt;&lt;/b&gt;&lt;/span&gt;&lt;/font&gt;" style="text;html=1;strokeColor=none;fillColor=none;align=center;verticalAlign=middle;whiteSpace=wrap;rounded=0;" vertex="1" parent="1">
          <mxGeometry x="350" y="410" width="60" height="30" as="geometry" />
        </mxCell>
        <mxCell id="cXK9eeM2C_JBxDsrHM4t-7" value="&lt;font color=&quot;#000000&quot;&gt;&lt;span style=&quot;font-size: 29px;&quot;&gt;&lt;b&gt;E5&lt;/b&gt;&lt;/span&gt;&lt;/font&gt;" style="text;html=1;strokeColor=none;fillColor=none;align=center;verticalAlign=middle;whiteSpace=wrap;rounded=0;" vertex="1" parent="1">
          <mxGeometry x="350" y="440" width="60" height="30" as="geometry" />
        </mxCell>
        <mxCell id="cXK9eeM2C_JBxDsrHM4t-8" value="&lt;font color=&quot;#000000&quot;&gt;&lt;span style=&quot;font-size: 29px;&quot;&gt;&lt;b&gt;E6&lt;/b&gt;&lt;/span&gt;&lt;/font&gt;" style="text;html=1;strokeColor=none;fillColor=none;align=center;verticalAlign=middle;whiteSpace=wrap;rounded=0;" vertex="1" parent="1">
          <mxGeometry x="350" y="470" width="60" height="30" as="geometry" />
        </mxCell>
        <mxCell id="cXK9eeM2C_JBxDsrHM4t-9" value="&lt;font color=&quot;#000000&quot;&gt;&lt;span style=&quot;font-size: 29px;&quot;&gt;&lt;b&gt;E7&lt;/b&gt;&lt;/span&gt;&lt;/font&gt;" style="text;html=1;strokeColor=none;fillColor=none;align=center;verticalAlign=middle;whiteSpace=wrap;rounded=0;" vertex="1" parent="1">
          <mxGeometry x="350" y="500" width="60" height="30" as="geometry" />
        </mxCell>
        <mxCell id="cXK9eeM2C_JBxDsrHM4t-10" value="&lt;font color=&quot;#000000&quot;&gt;&lt;span style=&quot;font-size: 29px;&quot;&gt;&lt;b&gt;E8&lt;/b&gt;&lt;/span&gt;&lt;/font&gt;" style="text;html=1;strokeColor=none;fillColor=none;align=center;verticalAlign=middle;whiteSpace=wrap;rounded=0;" vertex="1" parent="1">
          <mxGeometry x="350" y="530" width="60" height="30" as="geometry" />
        </mxCell>
        <mxCell id="cXK9eeM2C_JBxDsrHM4t-11" value="&lt;font color=&quot;#000000&quot;&gt;&lt;span style=&quot;font-size: 29px;&quot;&gt;&lt;b&gt;E9&lt;/b&gt;&lt;/span&gt;&lt;/font&gt;" style="text;html=1;strokeColor=none;fillColor=none;align=center;verticalAlign=middle;whiteSpace=wrap;rounded=0;" vertex="1" parent="1">
          <mxGeometry x="350" y="560" width="60" height="30" as="geometry" />
        </mxCell>
        <mxCell id="cXK9eeM2C_JBxDsrHM4t-12" value="&lt;font color=&quot;#000000&quot;&gt;&lt;span style=&quot;font-size: 29px;&quot;&gt;&lt;b&gt;E10&lt;/b&gt;&lt;/span&gt;&lt;/font&gt;" style="text;html=1;strokeColor=none;fillColor=none;align=center;verticalAlign=middle;whiteSpace=wrap;rounded=0;" vertex="1" parent="1">
          <mxGeometry x="360" y="590" width="60" height="30" as="geometry" />
        </mxCell>
        <mxCell id="cXK9eeM2C_JBxDsrHM4t-13" value="&lt;font color=&quot;#000000&quot;&gt;&lt;span style=&quot;font-size: 29px;&quot;&gt;&lt;b&gt;E11&lt;/b&gt;&lt;/span&gt;&lt;/font&gt;" style="text;html=1;strokeColor=none;fillColor=none;align=center;verticalAlign=middle;whiteSpace=wrap;rounded=0;" vertex="1" parent="1">
          <mxGeometry x="360" y="620" width="60" height="30" as="geometry" />
        </mxCell>
        <mxCell id="cXK9eeM2C_JBxDsrHM4t-14" value="&lt;font color=&quot;#000000&quot;&gt;&lt;span style=&quot;font-size: 29px;&quot;&gt;&lt;b&gt;E12&lt;/b&gt;&lt;/span&gt;&lt;/font&gt;" style="text;html=1;strokeColor=none;fillColor=none;align=center;verticalAlign=middle;whiteSpace=wrap;rounded=0;" vertex="1" parent="1">
          <mxGeometry x="360" y="650" width="60" height="30" as="geometry" />
        </mxCell>
        <mxCell id="cXK9eeM2C_JBxDsrHM4t-15" value="&lt;font color=&quot;#000000&quot;&gt;&lt;span style=&quot;font-size: 29px;&quot;&gt;&lt;b&gt;&amp;nbsp;E13&lt;/b&gt;&lt;/span&gt;&lt;/font&gt;" style="text;html=1;strokeColor=none;fillColor=none;align=center;verticalAlign=middle;whiteSpace=wrap;rounded=0;" vertex="1" parent="1">
          <mxGeometry x="354" y="680" width="60" height="30" as="geometry" />
        </mxCell>
        <mxCell id="cXK9eeM2C_JBxDsrHM4t-17" value="&lt;font color=&quot;#000000&quot;&gt;&lt;span style=&quot;font-size: 29px;&quot;&gt;&lt;b&gt;E14&lt;/b&gt;&lt;/span&gt;&lt;/font&gt;" style="text;html=1;strokeColor=none;fillColor=none;align=center;verticalAlign=middle;whiteSpace=wrap;rounded=0;" vertex="1" parent="1">
          <mxGeometry x="358" y="710" width="60" height="30" as="geometry" />
        </mxCell>
        <mxCell id="cXK9eeM2C_JBxDsrHM4t-18" value="&lt;font color=&quot;#000000&quot;&gt;&lt;span style=&quot;font-size: 29px;&quot;&gt;&lt;b&gt;E15&lt;/b&gt;&lt;/span&gt;&lt;/font&gt;" style="text;html=1;strokeColor=none;fillColor=none;align=center;verticalAlign=middle;whiteSpace=wrap;rounded=0;" vertex="1" parent="1">
          <mxGeometry x="358" y="740" width="60" height="30" as="geometry" />
        </mxCell>
        <mxCell id="cXK9eeM2C_JBxDsrHM4t-19" value="&lt;font color=&quot;#000000&quot;&gt;&lt;span style=&quot;font-size: 29px;&quot;&gt;&lt;b&gt;SEL&lt;/b&gt;&lt;/span&gt;&lt;/font&gt;" style="text;html=1;strokeColor=none;fillColor=none;align=center;verticalAlign=middle;whiteSpace=wrap;rounded=0;" vertex="1" parent="1">
          <mxGeometry x="370" y="770" width="60" height="30" as="geometry" />
        </mxCell>
        <mxCell id="cXK9eeM2C_JBxDsrHM4t-22" value="&lt;h5&gt;&lt;font color=&quot;#000000&quot;&gt;&lt;span style=&quot;font-size: 29px;&quot;&gt;&lt;b style=&quot;font-size: 22px;&quot;&gt;Ajungere etaj&lt;/b&gt;&lt;/span&gt;&lt;/font&gt;&lt;/h5&gt;" style="text;html=1;strokeColor=none;fillColor=none;align=center;verticalAlign=middle;whiteSpace=wrap;rounded=0;" vertex="1" parent="1">
          <mxGeometry x="520" y="300" width="60" height="30" as="geometry" />
        </mxCell>
        <mxCell id="cXK9eeM2C_JBxDsrHM4t-23" value="&lt;font color=&quot;#000000&quot;&gt;&lt;span style=&quot;font-size: 29px;&quot;&gt;MUX_16_1&lt;br&gt;&lt;/span&gt;&lt;/font&gt;" style="text;html=1;strokeColor=none;fillColor=none;align=center;verticalAlign=middle;whiteSpace=wrap;rounded=0;" vertex="1" parent="1">
          <mxGeometry x="460" y="530" width="60" height="30" as="geometry" />
        </mxCell>
        <mxCell id="cXK9eeM2C_JBxDsrHM4t-26" value="" style="endArrow=classic;html=1;rounded=0;strokeColor=#000000;" edge="1" parent="1">
          <mxGeometry width="50" height="50" relative="1" as="geometry">
            <mxPoint x="600" y="320" as="sourcePoint" />
            <mxPoint x="680" y="320" as="targetPoint" />
          </mxGeometry>
        </mxCell>
        <mxCell id="cXK9eeM2C_JBxDsrHM4t-29" value="" style="endArrow=classic;html=1;rounded=0;strokeColor=#000000;" edge="1" parent="1">
          <mxGeometry width="50" height="50" relative="1" as="geometry">
            <mxPoint x="280" y="304.29" as="sourcePoint" />
            <mxPoint x="360" y="304.29" as="targetPoint" />
          </mxGeometry>
        </mxCell>
        <mxCell id="cXK9eeM2C_JBxDsrHM4t-30" value="" style="endArrow=classic;html=1;rounded=0;strokeColor=#000000;" edge="1" parent="1">
          <mxGeometry width="50" height="50" relative="1" as="geometry">
            <mxPoint x="280" y="334.29" as="sourcePoint" />
            <mxPoint x="360" y="334.29" as="targetPoint" />
          </mxGeometry>
        </mxCell>
        <mxCell id="cXK9eeM2C_JBxDsrHM4t-31" value="" style="endArrow=classic;html=1;rounded=0;strokeColor=#000000;" edge="1" parent="1">
          <mxGeometry width="50" height="50" relative="1" as="geometry">
            <mxPoint x="280" y="364.29" as="sourcePoint" />
            <mxPoint x="360" y="364.29" as="targetPoint" />
          </mxGeometry>
        </mxCell>
        <mxCell id="cXK9eeM2C_JBxDsrHM4t-32" value="" style="endArrow=classic;html=1;rounded=0;strokeColor=#000000;" edge="1" parent="1">
          <mxGeometry width="50" height="50" relative="1" as="geometry">
            <mxPoint x="280" y="394.29" as="sourcePoint" />
            <mxPoint x="360" y="394.29" as="targetPoint" />
          </mxGeometry>
        </mxCell>
        <mxCell id="cXK9eeM2C_JBxDsrHM4t-33" value="" style="endArrow=classic;html=1;rounded=0;strokeColor=#000000;" edge="1" parent="1">
          <mxGeometry width="50" height="50" relative="1" as="geometry">
            <mxPoint x="280" y="424.29" as="sourcePoint" />
            <mxPoint x="360" y="424.29" as="targetPoint" />
          </mxGeometry>
        </mxCell>
        <mxCell id="cXK9eeM2C_JBxDsrHM4t-34" value="" style="endArrow=classic;html=1;rounded=0;strokeColor=#000000;" edge="1" parent="1">
          <mxGeometry width="50" height="50" relative="1" as="geometry">
            <mxPoint x="280" y="454.29" as="sourcePoint" />
            <mxPoint x="360" y="454.29" as="targetPoint" />
          </mxGeometry>
        </mxCell>
        <mxCell id="cXK9eeM2C_JBxDsrHM4t-35" value="" style="endArrow=classic;html=1;rounded=0;strokeColor=#000000;" edge="1" parent="1">
          <mxGeometry width="50" height="50" relative="1" as="geometry">
            <mxPoint x="280" y="484.29" as="sourcePoint" />
            <mxPoint x="360" y="484.29" as="targetPoint" />
          </mxGeometry>
        </mxCell>
        <mxCell id="cXK9eeM2C_JBxDsrHM4t-36" value="" style="endArrow=classic;html=1;rounded=0;strokeColor=#000000;" edge="1" parent="1">
          <mxGeometry width="50" height="50" relative="1" as="geometry">
            <mxPoint x="280" y="514.29" as="sourcePoint" />
            <mxPoint x="360" y="514.29" as="targetPoint" />
          </mxGeometry>
        </mxCell>
        <mxCell id="cXK9eeM2C_JBxDsrHM4t-37" value="" style="endArrow=classic;html=1;rounded=0;strokeColor=#000000;" edge="1" parent="1">
          <mxGeometry width="50" height="50" relative="1" as="geometry">
            <mxPoint x="280" y="544.29" as="sourcePoint" />
            <mxPoint x="360" y="544.29" as="targetPoint" />
          </mxGeometry>
        </mxCell>
        <mxCell id="cXK9eeM2C_JBxDsrHM4t-38" value="" style="endArrow=classic;html=1;rounded=0;strokeColor=#000000;" edge="1" parent="1">
          <mxGeometry width="50" height="50" relative="1" as="geometry">
            <mxPoint x="280" y="574.29" as="sourcePoint" />
            <mxPoint x="360" y="574.29" as="targetPoint" />
          </mxGeometry>
        </mxCell>
        <mxCell id="cXK9eeM2C_JBxDsrHM4t-39" value="" style="endArrow=classic;html=1;rounded=0;strokeColor=#000000;" edge="1" parent="1">
          <mxGeometry width="50" height="50" relative="1" as="geometry">
            <mxPoint x="280" y="604.29" as="sourcePoint" />
            <mxPoint x="360" y="604.29" as="targetPoint" />
          </mxGeometry>
        </mxCell>
        <mxCell id="cXK9eeM2C_JBxDsrHM4t-40" value="" style="endArrow=classic;html=1;rounded=0;strokeColor=#000000;" edge="1" parent="1">
          <mxGeometry width="50" height="50" relative="1" as="geometry">
            <mxPoint x="280" y="634.29" as="sourcePoint" />
            <mxPoint x="360" y="634.29" as="targetPoint" />
          </mxGeometry>
        </mxCell>
        <mxCell id="cXK9eeM2C_JBxDsrHM4t-41" value="" style="endArrow=classic;html=1;rounded=0;strokeColor=#000000;" edge="1" parent="1">
          <mxGeometry width="50" height="50" relative="1" as="geometry">
            <mxPoint x="280" y="664.29" as="sourcePoint" />
            <mxPoint x="360" y="664.29" as="targetPoint" />
          </mxGeometry>
        </mxCell>
        <mxCell id="cXK9eeM2C_JBxDsrHM4t-42" value="" style="endArrow=classic;html=1;rounded=0;strokeColor=#000000;" edge="1" parent="1">
          <mxGeometry width="50" height="50" relative="1" as="geometry">
            <mxPoint x="280" y="695" as="sourcePoint" />
            <mxPoint x="360" y="695" as="targetPoint" />
          </mxGeometry>
        </mxCell>
        <mxCell id="cXK9eeM2C_JBxDsrHM4t-43" value="" style="endArrow=classic;html=1;rounded=0;strokeColor=#000000;" edge="1" parent="1">
          <mxGeometry width="50" height="50" relative="1" as="geometry">
            <mxPoint x="280" y="724.29" as="sourcePoint" />
            <mxPoint x="360" y="724.29" as="targetPoint" />
          </mxGeometry>
        </mxCell>
        <mxCell id="cXK9eeM2C_JBxDsrHM4t-44" value="" style="endArrow=classic;html=1;rounded=0;strokeColor=#000000;" edge="1" parent="1">
          <mxGeometry width="50" height="50" relative="1" as="geometry">
            <mxPoint x="280" y="754.29" as="sourcePoint" />
            <mxPoint x="360" y="754.29" as="targetPoint" />
          </mxGeometry>
        </mxCell>
        <mxCell id="cXK9eeM2C_JBxDsrHM4t-45" value="" style="endArrow=classic;html=1;rounded=0;strokeColor=#000000;" edge="1" parent="1">
          <mxGeometry width="50" height="50" relative="1" as="geometry">
            <mxPoint x="280" y="784.29" as="sourcePoint" />
            <mxPoint x="360" y="784.29" as="targetPoint" />
          </mxGeometry>
        </mxCell>
        <mxCell id="cXK9eeM2C_JBxDsrHM4t-46" value="" style="endArrow=none;html=1;rounded=0;strokeColor=#000000;" edge="1" parent="1">
          <mxGeometry width="50" height="50" relative="1" as="geometry">
            <mxPoint x="307" y="772" as="sourcePoint" />
            <mxPoint x="329" y="797" as="targetPoint" />
          </mxGeometry>
        </mxCell>
        <mxCell id="cXK9eeM2C_JBxDsrHM4t-47" value="&lt;font color=&quot;#000000&quot;&gt;&lt;span style=&quot;font-size: 16px;&quot;&gt;&lt;b&gt;4&lt;/b&gt;&lt;/span&gt;&lt;/font&gt;" style="text;html=1;strokeColor=none;fillColor=none;align=center;verticalAlign=middle;whiteSpace=wrap;rounded=0;" vertex="1" parent="1">
          <mxGeometry x="294" y="755" width="60" height="30" as="geometry" />
        </mxCell>
      </root>
    </mxGraphModel>
  </diagram>
</mxfile>
